<?xml version="1.0" encoding="utf-8"?>
<!-- Generator: Adobe Illustrator 25.3.1, SVG Export Plug-In . SVG Version: 6.00 Build 0)  -->
<svg version="1.1" id="图层_1" xmlns="http://www.w3.org/2000/svg" xmlns:xlink="http://www.w3.org/1999/xlink" x="0px" y="0px"
	 width="16px" height="16px" viewBox="0 0 16 16" style="enable-background:new 0 0 16 16;" xml:space="preserve">
<style type="text/css">
	.st0{fill:#333333;}
</style>
<g>
	<path class="st0" d="M8,2.3v1.2c-2.8,0-5.1,2.3-5.1,5.1s2.3,5.1,5.1,5.1s5.1-2.3,5.1-5.1c0-1.4-0.5-2.7-1.5-3.6l0.9-0.8
		c1.1,1.2,1.8,2.8,1.8,4.4c0,3.5-2.8,6.4-6.4,6.4s-6.4-2.8-6.4-6.4S4.5,2.3,8,2.3z"/>
	<path class="st0" d="M9.4,2.6L6.9,1.1C6.8,1,6.7,1,6.6,1C6.5,1.1,6.4,1.2,6.4,1.4v3.1c0,0.1,0.1,0.3,0.2,0.3c0.1,0.1,0.2,0.1,0.4,0
		l2.5-1.5C9.5,3.2,9.6,3,9.6,2.9C9.6,2.8,9.5,2.7,9.4,2.6L9.4,2.6z"/>
</g>
</svg>
