<?xml version="1.0" standalone="no"?><!DOCTYPE svg PUBLIC "-//W3C//DTD SVG 1.1//EN" "http://www.w3.org/Graphics/SVG/1.1/DTD/svg11.dtd"><svg t="1701398172531" class="icon" viewBox="0 0 1024 1024" version="1.1" xmlns="http://www.w3.org/2000/svg" p-id="6452" xmlns:xlink="http://www.w3.org/1999/xlink" width="200" height="200"><path d="M381.8 549.9c0.8 18 20.4 80.1 20.4 121 0 40.9-11.4 98.4-20.4 124.6-9 26.2-64.4 26.6-33.6 32.4 30.8 5.8 185.1 4.4 218.3 2.4 33.2-2-11.8-1.2-19.2-14.4-7.4-13.2-21-41.1-25.2-64.7-4.2-23.6-9.4-53.9 0-76.7 9.4-22.8 45.4-44.3 56.4-59.9 11-15.6 11.6-26.4 9.6-33.5-2-7.2-14.6-15.4-21.6-9.6-7 5.8-10 33.5-20.4 44.3-10.4 10.8-35 27-42 20.4-7-6.6 1.8-45.7 0-59.9-1.8-14.2 1.6-23.4-10.8-25.2-12.4-1.8-53.6 1.8-63.6 14.4s6.4 54.1 3.6 61.1c-2.8 7-14.4-8.6-20.4-19.2-6-10.6-10.4-34.9-15.6-44.3-5.1-9.4-16.3-31.2-15.5-13.2z" fill="#976C4F" p-id="6453" data-spm-anchor-id="a313x.search_index.0.i7.44c03a81aRuugv" class="selected"></path><path d="M477 137c44.7 0 81 36.3 81 81 0 16.8-5.1 32.4-13.8 45.3l-6.4 7.7 1 1.9c4.1 9.7 6.4 20.3 6.4 31.5 0 22.4-9.1 42.6-23.7 57.3l-9.9 8.1 0.2 3c0 44.7-36.3 81-81 81-4.9 0-9.7-0.4-14.3-1.3l-4.9-1.3-0.9 5.6c-5.4 26.4-23.6 48.1-47.8 58.3l-10.2 3.2-8.2 10C329.8 543 309.6 552 287.2 552c-16.8 0-32.4-5.1-45.3-13.8l-7.1-5.8-5.9 1.8c-3.5 0.7-7.2 1.1-10.9 1.1-29.8 0-54-24.2-54-54 0-18.6 9.4-35.1 23.8-44.8l6.3-3.4-1.1-2c-3-7-4.6-14.7-4.6-22.8 0-24.3 14.8-45.1 35.8-54l5.1-1.6-3-9.7c-1-4.9-1.5-9.9-1.5-15 0-41.2 33.4-74.6 74.6-74.6l13.5 1.4 0.3-6.6c4.1-40.8 38.6-72.7 80.6-72.7 2.8 0 5.6 0.1 8.3 0.4l5.6 0.9 2.1-4C424.4 151.2 449 137 477 137z" fill="#9CDCBA" p-id="6454" data-spm-anchor-id="a313x.search_index.0.i5.44c03a81aRuugv" class="selected"></path><path d="M133 909.5c0-24.6 169.7-44.5 379-44.5s379 19.9 379 44.5S721.3 954 512 954s-379-19.9-379-44.5z" fill="#EDEDEE" p-id="6455"></path><path d="M449.1 389c13.5 0 25.8 5.5 34.7 14.3l4.4 5.3 2-0.2c28.7 0 52 23.3 52 52 0 7.2-1.5 14-4.1 20.2l-4 7.4 2.7 3.3c5.9 8.7 9.3 19.1 9.3 30.4 0 30-24.3 54.3-54.4 54.3-3.8 0-7.4-0.4-11-1.1l-9.4-2.9-0.4 0.3c-7.8 5.3-17.3 8.4-27.4 8.4-6.8 0-13.2-1.4-19.1-3.8l-2.5-1.4-2.7 5.1c-9.4 13.9-25.4 23.1-43.5 23.1-14.5 0-27.6-5.9-37.1-15.3l-3.4-4.1-1.5 7.4c-5.3 12.5-17.7 21.2-32.1 21.2-7.2 0-13.9-2.2-19.5-5.9l-2.4-2-0.8 0.9c-6.3 6.3-15 10.2-24.6 10.2-19.2 0-34.8-15.6-34.8-34.8l1.1-5.6-3.9 0.4c-19.2 0-34.8-15.6-34.8-34.8s15.6-34.8 34.8-34.8c9.6 0 18.3 3.9 24.6 10.2l2.4 3 1.4-2.6a40.13 40.13 0 0 1 33.3-17.7c5.6 0 10.8 1.1 15.7 3.2l4.8 2.6 1.7-8.4c6.1-14.4 20.4-24.5 37.1-24.5 2.1 0 4.1 0.2 6.1 0.5l3.2 0.7-0.3-3c0-27.1 21.9-49 49-49l7.1 0.7 0.9-3.1c7.7-17.8 25.1-30.1 45.4-30.1z" fill="#64BA8C" p-id="6456" data-spm-anchor-id="a313x.search_index.0.i6.44c03a81aRuugv" class="selected"></path><path d="M575 205c35.4 0 64.1 28.7 64.1 64.1 0 17.7-7.2 33.7-18.8 45.3l-4.1 3.4 4.8 0.4c8.1 1.2 15.6 4.3 22.1 8.7l6.2 5.1 2.3-1.9c8.7-5.9 19.2-9.3 30.4-9.3 30 0 54.4 24.4 54.4 54.4 0 7.5-1.5 14.7-4.3 21.2l-2.7 5 5.1-0.5c30 0 54.4 24.4 54.4 54.4 0 15-6.1 28.6-15.9 38.5l-0.3 0.3 0.2 2.9c0 30-24.4 54.4-54.4 54.4-5.6 0-11.1-0.9-16.2-2.4l-3.6-1.4-1.1 3.5c-8.7 20.6-29.2 35.1-53 35.1-11.9 0-23-3.6-32.1-9.8l-4.5-3.7-2 6.4c-8.3 19.5-27.6 33.2-50.1 33.2-30 0-54.4-24.3-54.4-54.4 0-15 6.1-28.6 15.9-38.5l0.3-0.2-5.3-0.5c-30.5-6.2-53.4-33.2-53.4-65.5 0-18.5 7.5-35.2 19.6-47.3l5.7-4.7-4.8-8.9c-3.4-8-5.3-16.8-5.3-26 0-27.7 16.9-51.5 40.9-61.6l5.5-1.7-1.1-1.7c-5.4-9.4-8.5-20.3-8.5-31.9-0.1-35.7 28.6-64.4 64-64.4z" fill="#7CD0A4" p-id="6457" data-spm-anchor-id="a313x.search_index.0.i4.44c03a81aRuugv" class="selected"></path><path d="M430.3 235c7 0.2 11.8 6.9 10.5 13.8-0.7 3.8-6.4 2.2-5.7-1.6 0.7-3.9-2.6-6.5-6.2-6.2-3.8 0.4-3.8-5.6 0-6h1.4z" fill="#379966" p-id="6458"></path><path d="M450.1 248c4.7 0 9.4 1.3 12.6 4.3 0.5 0.4 0.9 0.9 1.3 1.5 8.4 11.2-2.3 45.1-17.6 45.1-2.6 0-5.3-1-8.1-3.2-2.4 1.9-5.3 3.3-8.4 3.3-0.9 0-1.8-0.1-2.8-0.4-10.2-2.9-14.8-17.3-16.4-26.4-0.9-4.9-1.4-10.6 0.3-15.4 2.2-6.3 9.5-8.7 15.7-8.7h0.9c2.6 0.1 5.3 0.6 7.8 1.5 0.3 0.1 2.4 1.2 2.8 1.2h0.1c3.3-1.8 7.6-2.8 11.8-2.8z" fill="#FB6568" p-id="6459" data-spm-anchor-id="a313x.search_index.0.i10.44c03a81aRuugv" class="selected"></path><path d="M304.3 358c7 0.2 11.8 6.9 10.5 13.8-0.7 3.8-6.4 2.2-5.7-1.6 0.7-3.9-2.6-6.5-6.2-6.2-3.8 0.4-3.8-5.6 0-6h1.4z" fill="#379966" p-id="6460"></path><path d="M324.1 370c4.7 0 9.4 1.3 12.6 4.4 0.5 0.5 0.9 0.9 1.3 1.5 8.4 11.5-2.3 46-17.6 46-2.6 0-5.3-1-8.1-3.3-2.4 2-5.3 3.3-8.4 3.3-0.9 0-1.8-0.1-2.8-0.4-10.2-2.9-14.8-17.7-16.4-27-0.9-5-1.4-10.8 0.3-15.7 2.2-6.4 9.5-8.8 15.7-8.8h0.9c2.6 0.1 5.3 0.6 7.8 1.5 0.3 0.1 2.4 1.2 2.8 1.2h0.1c3.3-1.6 7.6-2.7 11.8-2.7z" fill="#FB6568" p-id="6461" data-spm-anchor-id="a313x.search_index.0.i9.44c03a81aRuugv" class="selected"></path><path d="M618.6 376c7.5 0.2 12.6 6.9 11.2 13.8-0.8 3.8-6.9 2.2-6.1-1.6 0.8-3.9-2.7-6.5-6.6-6.2-4.1 0.4-4-5.6 0-6h1.5z" fill="#379966" p-id="6462"></path><path d="M638.1 389c4.7 0 9.4 1.3 12.6 4.3 0.5 0.4 0.9 0.9 1.3 1.5 8.4 11.2-2.3 45.1-17.6 45.1-2.6 0-5.3-1-8.1-3.2-2.4 1.9-5.3 3.3-8.4 3.3-0.9 0-1.8-0.1-2.8-0.4-10.2-2.9-14.8-17.3-16.4-26.4-0.9-4.9-1.4-10.6 0.3-15.4 2.2-6.3 9.5-8.7 15.7-8.7h0.9c2.6 0.1 5.3 0.6 7.8 1.5 0.3 0.1 2.4 1.2 2.8 1.2h0.1c3.3-1.8 7.6-2.8 11.8-2.8z" fill="#FB6568" p-id="6463" data-spm-anchor-id="a313x.search_index.0.i8.44c03a81aRuugv" class="selected"></path></svg>